<mxfile host="app.diagrams.net" modified="2023-04-25T06:04:14.461Z" agent="Mozilla/5.0 (Macintosh; Intel Mac OS X 10_15_7) AppleWebKit/537.36 (KHTML, like Gecko) Chrome/112.0.0.0 Safari/537.36" etag="6vQ3ygQSaDIhh_u2JQyl" version="21.2.1" type="github">
  <diagram id="C5RBs43oDa-KdzZeNtuy" name="Page-1">
    <mxGraphModel dx="1227" dy="690" grid="1" gridSize="10" guides="1" tooltips="1" connect="1" arrows="1" fold="1" page="1" pageScale="1" pageWidth="827" pageHeight="1169" math="0" shadow="0">
      <root>
        <mxCell id="WIyWlLk6GJQsqaUBKTNV-0" />
        <mxCell id="WIyWlLk6GJQsqaUBKTNV-1" parent="WIyWlLk6GJQsqaUBKTNV-0" />
        <mxCell id="iYIyhepeATZClFI1xBxI-0" value="influxdb" style="rounded=1;whiteSpace=wrap;html=1;" parent="WIyWlLk6GJQsqaUBKTNV-1" vertex="1">
          <mxGeometry x="70" y="890" width="120" height="60" as="geometry" />
        </mxCell>
        <mxCell id="iYIyhepeATZClFI1xBxI-2" value="" style="edgeStyle=orthogonalEdgeStyle;rounded=0;orthogonalLoop=1;jettySize=auto;html=1;" parent="WIyWlLk6GJQsqaUBKTNV-1" source="iYIyhepeATZClFI1xBxI-1" target="iYIyhepeATZClFI1xBxI-0" edge="1">
          <mxGeometry relative="1" as="geometry" />
        </mxCell>
        <mxCell id="iYIyhepeATZClFI1xBxI-6" value="将预测数据存储" style="edgeLabel;html=1;align=center;verticalAlign=middle;resizable=0;points=[];" parent="iYIyhepeATZClFI1xBxI-2" vertex="1" connectable="0">
          <mxGeometry x="-0.148" y="1" relative="1" as="geometry">
            <mxPoint as="offset" />
          </mxGeometry>
        </mxCell>
        <mxCell id="iYIyhepeATZClFI1xBxI-1" value="scraper" style="rounded=1;whiteSpace=wrap;html=1;" parent="WIyWlLk6GJQsqaUBKTNV-1" vertex="1">
          <mxGeometry x="70" y="760" width="120" height="60" as="geometry" />
        </mxCell>
        <mxCell id="iYIyhepeATZClFI1xBxI-4" value="" style="edgeStyle=orthogonalEdgeStyle;rounded=0;orthogonalLoop=1;jettySize=auto;html=1;" parent="WIyWlLk6GJQsqaUBKTNV-1" source="iYIyhepeATZClFI1xBxI-3" target="iYIyhepeATZClFI1xBxI-1" edge="1">
          <mxGeometry relative="1" as="geometry" />
        </mxCell>
        <mxCell id="iYIyhepeATZClFI1xBxI-5" value="获取预测数据" style="edgeLabel;html=1;align=center;verticalAlign=middle;resizable=0;points=[];" parent="iYIyhepeATZClFI1xBxI-4" vertex="1" connectable="0">
          <mxGeometry x="-0.0726" y="-2" relative="1" as="geometry">
            <mxPoint as="offset" />
          </mxGeometry>
        </mxCell>
        <mxCell id="iYIyhepeATZClFI1xBxI-3" value="predict" style="rounded=1;whiteSpace=wrap;html=1;" parent="WIyWlLk6GJQsqaUBKTNV-1" vertex="1">
          <mxGeometry x="70" y="640" width="120" height="60" as="geometry" />
        </mxCell>
        <mxCell id="lrxi3cdR3jTqpjhSWojQ-0" value="Actor" style="shape=umlActor;verticalLabelPosition=bottom;verticalAlign=top;html=1;outlineConnect=0;" vertex="1" parent="WIyWlLk6GJQsqaUBKTNV-1">
          <mxGeometry x="400" y="100" width="30" height="60" as="geometry" />
        </mxCell>
        <mxCell id="lrxi3cdR3jTqpjhSWojQ-37" style="edgeStyle=orthogonalEdgeStyle;rounded=0;orthogonalLoop=1;jettySize=auto;html=1;" edge="1" parent="WIyWlLk6GJQsqaUBKTNV-1" source="lrxi3cdR3jTqpjhSWojQ-1" target="lrxi3cdR3jTqpjhSWojQ-0">
          <mxGeometry relative="1" as="geometry" />
        </mxCell>
        <mxCell id="lrxi3cdR3jTqpjhSWojQ-1" value="grafana" style="rounded=1;whiteSpace=wrap;html=1;" vertex="1" parent="WIyWlLk6GJQsqaUBKTNV-1">
          <mxGeometry x="200" y="180" width="120" height="60" as="geometry" />
        </mxCell>
        <mxCell id="lrxi3cdR3jTqpjhSWojQ-29" style="edgeStyle=orthogonalEdgeStyle;rounded=0;orthogonalLoop=1;jettySize=auto;html=1;exitX=0.5;exitY=1;exitDx=0;exitDy=0;entryX=0.5;entryY=0;entryDx=0;entryDy=0;" edge="1" parent="WIyWlLk6GJQsqaUBKTNV-1" source="lrxi3cdR3jTqpjhSWojQ-2" target="lrxi3cdR3jTqpjhSWojQ-17">
          <mxGeometry relative="1" as="geometry" />
        </mxCell>
        <mxCell id="lrxi3cdR3jTqpjhSWojQ-30" style="edgeStyle=orthogonalEdgeStyle;rounded=0;orthogonalLoop=1;jettySize=auto;html=1;exitX=0.5;exitY=1;exitDx=0;exitDy=0;entryX=0.5;entryY=0;entryDx=0;entryDy=0;" edge="1" parent="WIyWlLk6GJQsqaUBKTNV-1" source="lrxi3cdR3jTqpjhSWojQ-2" target="lrxi3cdR3jTqpjhSWojQ-18">
          <mxGeometry relative="1" as="geometry">
            <Array as="points">
              <mxPoint x="580" y="290" />
              <mxPoint x="740" y="290" />
            </Array>
          </mxGeometry>
        </mxCell>
        <mxCell id="lrxi3cdR3jTqpjhSWojQ-38" style="edgeStyle=orthogonalEdgeStyle;rounded=0;orthogonalLoop=1;jettySize=auto;html=1;" edge="1" parent="WIyWlLk6GJQsqaUBKTNV-1" source="lrxi3cdR3jTqpjhSWojQ-2" target="lrxi3cdR3jTqpjhSWojQ-0">
          <mxGeometry relative="1" as="geometry" />
        </mxCell>
        <mxCell id="lrxi3cdR3jTqpjhSWojQ-2" value="dashboard" style="rounded=1;whiteSpace=wrap;html=1;" vertex="1" parent="WIyWlLk6GJQsqaUBKTNV-1">
          <mxGeometry x="520" y="180" width="120" height="60" as="geometry" />
        </mxCell>
        <mxCell id="lrxi3cdR3jTqpjhSWojQ-13" style="edgeStyle=orthogonalEdgeStyle;rounded=0;orthogonalLoop=1;jettySize=auto;html=1;exitX=0.5;exitY=1;exitDx=0;exitDy=0;" edge="1" parent="WIyWlLk6GJQsqaUBKTNV-1" source="lrxi3cdR3jTqpjhSWojQ-3" target="lrxi3cdR3jTqpjhSWojQ-4">
          <mxGeometry relative="1" as="geometry" />
        </mxCell>
        <mxCell id="lrxi3cdR3jTqpjhSWojQ-15" style="edgeStyle=orthogonalEdgeStyle;rounded=0;orthogonalLoop=1;jettySize=auto;html=1;exitX=0.5;exitY=0;exitDx=0;exitDy=0;entryX=0.5;entryY=1;entryDx=0;entryDy=0;" edge="1" parent="WIyWlLk6GJQsqaUBKTNV-1" source="lrxi3cdR3jTqpjhSWojQ-3" target="lrxi3cdR3jTqpjhSWojQ-1">
          <mxGeometry relative="1" as="geometry" />
        </mxCell>
        <mxCell id="lrxi3cdR3jTqpjhSWojQ-3" value="influxdb-proxy" style="rounded=1;whiteSpace=wrap;html=1;" vertex="1" parent="WIyWlLk6GJQsqaUBKTNV-1">
          <mxGeometry x="40" y="300" width="120" height="60" as="geometry" />
        </mxCell>
        <mxCell id="lrxi3cdR3jTqpjhSWojQ-4" value="influxdb集群" style="rounded=1;whiteSpace=wrap;html=1;" vertex="1" parent="WIyWlLk6GJQsqaUBKTNV-1">
          <mxGeometry x="120" y="520" width="120" height="60" as="geometry" />
        </mxCell>
        <mxCell id="lrxi3cdR3jTqpjhSWojQ-9" style="edgeStyle=orthogonalEdgeStyle;rounded=0;orthogonalLoop=1;jettySize=auto;html=1;entryX=1;entryY=0.5;entryDx=0;entryDy=0;" edge="1" parent="WIyWlLk6GJQsqaUBKTNV-1" source="lrxi3cdR3jTqpjhSWojQ-5" target="lrxi3cdR3jTqpjhSWojQ-4">
          <mxGeometry relative="1" as="geometry">
            <Array as="points">
              <mxPoint x="420" y="550" />
            </Array>
          </mxGeometry>
        </mxCell>
        <mxCell id="lrxi3cdR3jTqpjhSWojQ-10" value="拉数据" style="edgeLabel;html=1;align=center;verticalAlign=middle;resizable=0;points=[];" vertex="1" connectable="0" parent="lrxi3cdR3jTqpjhSWojQ-9">
          <mxGeometry x="0.1867" y="-1" relative="1" as="geometry">
            <mxPoint as="offset" />
          </mxGeometry>
        </mxCell>
        <mxCell id="lrxi3cdR3jTqpjhSWojQ-14" style="edgeStyle=orthogonalEdgeStyle;rounded=0;orthogonalLoop=1;jettySize=auto;html=1;exitX=0.5;exitY=0;exitDx=0;exitDy=0;entryX=0.5;entryY=1;entryDx=0;entryDy=0;" edge="1" parent="WIyWlLk6GJQsqaUBKTNV-1" source="lrxi3cdR3jTqpjhSWojQ-5" target="lrxi3cdR3jTqpjhSWojQ-2">
          <mxGeometry relative="1" as="geometry">
            <Array as="points">
              <mxPoint x="420" y="290" />
              <mxPoint x="580" y="290" />
            </Array>
          </mxGeometry>
        </mxCell>
        <mxCell id="lrxi3cdR3jTqpjhSWojQ-42" value="拉取配置/存配置" style="edgeLabel;html=1;align=center;verticalAlign=middle;resizable=0;points=[];" vertex="1" connectable="0" parent="lrxi3cdR3jTqpjhSWojQ-14">
          <mxGeometry x="0.8119" relative="1" as="geometry">
            <mxPoint as="offset" />
          </mxGeometry>
        </mxCell>
        <mxCell id="lrxi3cdR3jTqpjhSWojQ-20" style="edgeStyle=orthogonalEdgeStyle;rounded=0;orthogonalLoop=1;jettySize=auto;html=1;exitX=1;exitY=0.5;exitDx=0;exitDy=0;" edge="1" parent="WIyWlLk6GJQsqaUBKTNV-1" source="lrxi3cdR3jTqpjhSWojQ-5" target="lrxi3cdR3jTqpjhSWojQ-19">
          <mxGeometry relative="1" as="geometry" />
        </mxCell>
        <mxCell id="lrxi3cdR3jTqpjhSWojQ-40" value="拉取数据" style="edgeLabel;html=1;align=center;verticalAlign=middle;resizable=0;points=[];" vertex="1" connectable="0" parent="lrxi3cdR3jTqpjhSWojQ-20">
          <mxGeometry x="-0.0715" relative="1" as="geometry">
            <mxPoint as="offset" />
          </mxGeometry>
        </mxCell>
        <mxCell id="lrxi3cdR3jTqpjhSWojQ-5" value="graph" style="rounded=1;whiteSpace=wrap;html=1;" vertex="1" parent="WIyWlLk6GJQsqaUBKTNV-1">
          <mxGeometry x="360" y="410" width="120" height="60" as="geometry" />
        </mxCell>
        <mxCell id="lrxi3cdR3jTqpjhSWojQ-12" style="edgeStyle=orthogonalEdgeStyle;rounded=0;orthogonalLoop=1;jettySize=auto;html=1;exitX=0.5;exitY=1;exitDx=0;exitDy=0;entryX=0.5;entryY=0;entryDx=0;entryDy=0;" edge="1" parent="WIyWlLk6GJQsqaUBKTNV-1" source="lrxi3cdR3jTqpjhSWojQ-6" target="lrxi3cdR3jTqpjhSWojQ-8">
          <mxGeometry relative="1" as="geometry" />
        </mxCell>
        <mxCell id="lrxi3cdR3jTqpjhSWojQ-16" style="edgeStyle=orthogonalEdgeStyle;rounded=0;orthogonalLoop=1;jettySize=auto;html=1;exitX=0.5;exitY=0;exitDx=0;exitDy=0;" edge="1" parent="WIyWlLk6GJQsqaUBKTNV-1" source="lrxi3cdR3jTqpjhSWojQ-6">
          <mxGeometry relative="1" as="geometry">
            <mxPoint x="260.33333333333326" y="240" as="targetPoint" />
          </mxGeometry>
        </mxCell>
        <mxCell id="lrxi3cdR3jTqpjhSWojQ-6" value="prometheus" style="rounded=1;whiteSpace=wrap;html=1;" vertex="1" parent="WIyWlLk6GJQsqaUBKTNV-1">
          <mxGeometry x="200" y="300" width="120" height="60" as="geometry" />
        </mxCell>
        <mxCell id="lrxi3cdR3jTqpjhSWojQ-11" style="edgeStyle=orthogonalEdgeStyle;rounded=0;orthogonalLoop=1;jettySize=auto;html=1;exitX=0.5;exitY=1;exitDx=0;exitDy=0;entryX=0.5;entryY=0;entryDx=0;entryDy=0;" edge="1" parent="WIyWlLk6GJQsqaUBKTNV-1" source="lrxi3cdR3jTqpjhSWojQ-8" target="lrxi3cdR3jTqpjhSWojQ-4">
          <mxGeometry relative="1" as="geometry" />
        </mxCell>
        <mxCell id="lrxi3cdR3jTqpjhSWojQ-8" value="prometheus-proxy" style="rounded=1;whiteSpace=wrap;html=1;" vertex="1" parent="WIyWlLk6GJQsqaUBKTNV-1">
          <mxGeometry x="200" y="410" width="120" height="60" as="geometry" />
        </mxCell>
        <mxCell id="lrxi3cdR3jTqpjhSWojQ-31" style="edgeStyle=orthogonalEdgeStyle;rounded=0;orthogonalLoop=1;jettySize=auto;html=1;exitX=0.5;exitY=1;exitDx=0;exitDy=0;entryX=0.5;entryY=0;entryDx=0;entryDy=0;" edge="1" parent="WIyWlLk6GJQsqaUBKTNV-1" source="lrxi3cdR3jTqpjhSWojQ-17" target="lrxi3cdR3jTqpjhSWojQ-19">
          <mxGeometry relative="1" as="geometry" />
        </mxCell>
        <mxCell id="lrxi3cdR3jTqpjhSWojQ-17" value="mysql" style="rounded=1;whiteSpace=wrap;html=1;" vertex="1" parent="WIyWlLk6GJQsqaUBKTNV-1">
          <mxGeometry x="520" y="320" width="120" height="60" as="geometry" />
        </mxCell>
        <mxCell id="lrxi3cdR3jTqpjhSWojQ-32" style="edgeStyle=orthogonalEdgeStyle;rounded=0;orthogonalLoop=1;jettySize=auto;html=1;entryX=0.5;entryY=0;entryDx=0;entryDy=0;" edge="1" parent="WIyWlLk6GJQsqaUBKTNV-1" source="lrxi3cdR3jTqpjhSWojQ-18" target="lrxi3cdR3jTqpjhSWojQ-19">
          <mxGeometry relative="1" as="geometry">
            <Array as="points">
              <mxPoint x="740" y="400" />
              <mxPoint x="650" y="400" />
            </Array>
          </mxGeometry>
        </mxCell>
        <mxCell id="lrxi3cdR3jTqpjhSWojQ-18" value="mongo" style="rounded=1;whiteSpace=wrap;html=1;" vertex="1" parent="WIyWlLk6GJQsqaUBKTNV-1">
          <mxGeometry x="680" y="320" width="120" height="60" as="geometry" />
        </mxCell>
        <mxCell id="lrxi3cdR3jTqpjhSWojQ-39" style="edgeStyle=orthogonalEdgeStyle;rounded=0;orthogonalLoop=1;jettySize=auto;html=1;entryX=0.5;entryY=0.5;entryDx=0;entryDy=0;entryPerimeter=0;" edge="1" parent="WIyWlLk6GJQsqaUBKTNV-1" source="lrxi3cdR3jTqpjhSWojQ-19" target="lrxi3cdR3jTqpjhSWojQ-21">
          <mxGeometry relative="1" as="geometry" />
        </mxCell>
        <mxCell id="lrxi3cdR3jTqpjhSWojQ-41" value="发送告警" style="edgeLabel;html=1;align=center;verticalAlign=middle;resizable=0;points=[];" vertex="1" connectable="0" parent="lrxi3cdR3jTqpjhSWojQ-39">
          <mxGeometry x="-0.1776" y="1" relative="1" as="geometry">
            <mxPoint as="offset" />
          </mxGeometry>
        </mxCell>
        <mxCell id="lrxi3cdR3jTqpjhSWojQ-19" value="alert" style="rounded=1;whiteSpace=wrap;html=1;" vertex="1" parent="WIyWlLk6GJQsqaUBKTNV-1">
          <mxGeometry x="590" y="410" width="120" height="60" as="geometry" />
        </mxCell>
        <mxCell id="lrxi3cdR3jTqpjhSWojQ-21" value="Actor" style="shape=umlActor;verticalLabelPosition=bottom;verticalAlign=top;html=1;outlineConnect=0;" vertex="1" parent="WIyWlLk6GJQsqaUBKTNV-1">
          <mxGeometry x="850" y="410" width="30" height="60" as="geometry" />
        </mxCell>
        <mxCell id="lrxi3cdR3jTqpjhSWojQ-27" style="edgeStyle=orthogonalEdgeStyle;rounded=0;orthogonalLoop=1;jettySize=auto;html=1;" edge="1" parent="WIyWlLk6GJQsqaUBKTNV-1" source="lrxi3cdR3jTqpjhSWojQ-24">
          <mxGeometry relative="1" as="geometry">
            <mxPoint x="420" y="470" as="targetPoint" />
          </mxGeometry>
        </mxCell>
        <mxCell id="lrxi3cdR3jTqpjhSWojQ-28" value="数据上报" style="edgeLabel;html=1;align=center;verticalAlign=middle;resizable=0;points=[];" vertex="1" connectable="0" parent="lrxi3cdR3jTqpjhSWojQ-27">
          <mxGeometry x="-0.4714" y="1" relative="1" as="geometry">
            <mxPoint as="offset" />
          </mxGeometry>
        </mxCell>
        <mxCell id="lrxi3cdR3jTqpjhSWojQ-24" value="agent" style="rounded=1;whiteSpace=wrap;html=1;" vertex="1" parent="WIyWlLk6GJQsqaUBKTNV-1">
          <mxGeometry x="510" y="520" width="120" height="60" as="geometry" />
        </mxCell>
        <mxCell id="lrxi3cdR3jTqpjhSWojQ-35" value="数据上报" style="edgeStyle=orthogonalEdgeStyle;rounded=0;orthogonalLoop=1;jettySize=auto;html=1;" edge="1" parent="WIyWlLk6GJQsqaUBKTNV-1" source="lrxi3cdR3jTqpjhSWojQ-25">
          <mxGeometry relative="1" as="geometry">
            <mxPoint x="420" y="550" as="targetPoint" />
          </mxGeometry>
        </mxCell>
        <mxCell id="lrxi3cdR3jTqpjhSWojQ-25" value="jvmmon" style="rounded=1;whiteSpace=wrap;html=1;" vertex="1" parent="WIyWlLk6GJQsqaUBKTNV-1">
          <mxGeometry x="510" y="640" width="120" height="60" as="geometry" />
        </mxCell>
        <mxCell id="lrxi3cdR3jTqpjhSWojQ-33" style="edgeStyle=orthogonalEdgeStyle;rounded=0;orthogonalLoop=1;jettySize=auto;html=1;exitX=0;exitY=0.5;exitDx=0;exitDy=0;entryX=1;entryY=0.5;entryDx=0;entryDy=0;" edge="1" parent="WIyWlLk6GJQsqaUBKTNV-1" source="lrxi3cdR3jTqpjhSWojQ-26" target="lrxi3cdR3jTqpjhSWojQ-24">
          <mxGeometry relative="1" as="geometry" />
        </mxCell>
        <mxCell id="lrxi3cdR3jTqpjhSWojQ-34" value="获取采集配置" style="edgeLabel;html=1;align=center;verticalAlign=middle;resizable=0;points=[];" vertex="1" connectable="0" parent="lrxi3cdR3jTqpjhSWojQ-33">
          <mxGeometry x="-0.0019" y="-1" relative="1" as="geometry">
            <mxPoint as="offset" />
          </mxGeometry>
        </mxCell>
        <mxCell id="lrxi3cdR3jTqpjhSWojQ-36" value="获取采集配置" style="edgeStyle=orthogonalEdgeStyle;rounded=0;orthogonalLoop=1;jettySize=auto;html=1;entryX=1;entryY=0.5;entryDx=0;entryDy=0;" edge="1" parent="WIyWlLk6GJQsqaUBKTNV-1" source="lrxi3cdR3jTqpjhSWojQ-26" target="lrxi3cdR3jTqpjhSWojQ-25">
          <mxGeometry relative="1" as="geometry">
            <Array as="points">
              <mxPoint x="790" y="670" />
            </Array>
          </mxGeometry>
        </mxCell>
        <mxCell id="lrxi3cdR3jTqpjhSWojQ-26" value="" style="rounded=1;whiteSpace=wrap;html=1;" vertex="1" parent="WIyWlLk6GJQsqaUBKTNV-1">
          <mxGeometry x="730" y="520" width="120" height="60" as="geometry" />
        </mxCell>
      </root>
    </mxGraphModel>
  </diagram>
</mxfile>
